<svg width="389" height="442" viewBox="0 0 389 442" fill="none" xmlns="http://www.w3.org/2000/svg">
  <g clip-path="url(#clip0_9_644)">
    <mask id="mask0_9_644" style="mask-type:luminance" maskUnits="userSpaceOnUse" x="0" y="0" width="576" height="442">
      <path d="M576 0H0V442H576V0Z" fill="white" />
    </mask>
    <g mask="url(#mask0_9_644)">
      <path d="M88.6124 138.699C92.3667 136.527 98.4617 136.527 102.216 138.699L184.027 186.02C187.782 188.192 187.782 191.717 184.027 193.889L102.216 241.21C98.4617 243.382 92.3667 243.382 88.6124 241.21L6.80126 193.881C3.04688 191.709 3.04688 188.184 6.80126 186.012L88.6124 138.691V138.699Z" fill="#1B1B1B" />
      <path fill-rule="evenodd" clip-rule="evenodd" d="M170.239 166.341C172.116 165.255 173.058 163.831 173.058 162.407V186.013C173.058 187.437 172.116 188.861 170.239 189.947L102.22 229.29C98.4656 231.461 92.3706 231.461 88.6162 229.29L20.5974 189.947V166.341L88.6162 205.684C92.3706 207.856 98.4656 207.856 102.22 205.684L170.239 166.341ZM17.7776 162.407C17.7776 163.831 18.7202 165.255 20.5974 166.341V189.947C18.7202 188.861 17.7776 187.437 17.7776 186.013V162.407Z" fill="#D4D4D4" />
      <path d="M88.03 229.125V205.504L81.7544 201.868V225.498L88.03 229.125Z" fill="white" />
      <path d="M17.6075 162.407V191.575H20.7493V162.407H17.6075ZM17.6075 191.575C17.6075 192.441 18.3144 193.149 19.1784 193.149C20.0424 193.149 20.7493 192.441 20.7493 191.575H17.6075ZM20.7493 162.407C20.7493 161.541 20.0424 160.833 19.1784 160.833C18.3144 160.833 17.6075 161.541 17.6075 162.407H20.7493Z" fill="#1B1B1B" />
      <path d="M93.8547 207.022V236.19H96.9964V207.022H93.8547ZM93.8547 236.19C93.8547 237.056 94.5616 237.764 95.4255 237.764C96.2895 237.764 96.9964 237.056 96.9964 236.19H93.8547ZM96.9964 207.022C96.9964 206.156 96.2895 205.448 95.4255 205.448C94.5616 205.448 93.8547 206.156 93.8547 207.022H96.9964Z" fill="#1B1B1B" />
      <path d="M169.975 162.815V191.984H173.117V162.815H169.975ZM169.975 191.984C169.975 192.85 170.682 193.558 171.546 193.558C172.41 193.558 173.117 192.85 173.117 191.984H169.975ZM173.117 162.815C173.117 161.95 172.41 161.242 171.546 161.242C170.682 161.242 169.975 161.95 169.975 162.815H173.117Z" fill="#1B1B1B" />
      <path d="M88.6124 119.13C92.3668 116.958 98.4618 116.958 102.216 119.13L170.235 158.472C173.989 160.644 173.989 164.169 170.235 166.341L102.216 205.684C98.4618 207.855 92.3668 207.855 88.6124 205.684L20.5936 166.341C16.8392 164.169 16.8392 160.644 20.5936 158.472L88.6124 119.13Z" fill="#9DF25B" />
      <mask id="mask1_9_644" style="mask-type:luminance" maskUnits="userSpaceOnUse" x="17" y="117" width="157" height="91">
        <path d="M88.6123 119.13C92.3667 116.958 98.4616 116.958 102.216 119.13L170.235 158.473C173.989 160.644 173.989 164.169 170.235 166.341L102.216 205.684C98.4616 207.856 92.3667 207.856 88.6123 205.684L20.5934 166.341C16.8391 164.169 16.8391 160.644 20.5934 158.473L88.6123 119.13Z" fill="white" />
      </mask>
      <g mask="url(#mask1_9_644)">
        <path d="M104.931 117.556C99.6687 114.511 91.1467 114.511 85.8843 117.556L91.3274 120.703C93.5816 119.397 97.2338 119.397 99.4881 120.703L104.931 117.556ZM167.507 160.046C169.761 161.352 169.761 163.461 167.507 164.767L172.95 167.915C178.212 164.869 178.212 159.944 172.95 156.899L167.507 160.046ZM99.4881 204.11C97.2338 205.416 93.5816 205.416 91.3274 204.11L85.8843 207.257C91.1467 210.302 99.6687 210.302 104.931 207.257L99.4881 204.11ZM23.3085 164.767C21.0543 163.461 21.0543 161.352 23.3085 160.046L17.8655 156.899C12.603 159.944 12.603 164.869 17.8655 167.915L23.3085 164.767ZM23.3085 160.046L91.3274 120.703L85.8843 117.556L17.8655 156.899L23.3085 160.046ZM91.3274 204.11L23.3085 164.767L17.8655 167.915L85.8843 207.257L91.3274 204.11ZM167.507 164.767L99.4881 204.11L104.931 207.257L172.95 167.915L167.507 164.767ZM99.4881 120.703L167.507 160.046L172.95 156.899L104.931 117.556L99.4881 120.703Z" fill="#1B1B1B" />
      </g>
      <path d="M88.6148 130.665C92.3692 128.494 98.4642 128.494 102.219 130.665L150.295 158.473C154.05 160.645 154.05 164.17 150.295 166.341L102.219 194.149C98.4642 196.321 92.3692 196.321 88.6148 194.149L40.5382 166.341C36.7838 164.17 36.7838 160.645 40.5382 158.473L88.6148 130.665Z" fill="#1B1B1B" />
      <mask id="mask2_9_644" style="mask-type:luminance" maskUnits="userSpaceOnUse" x="37" y="129" width="117" height="67">
        <path d="M88.6148 130.665C92.3692 128.494 98.4642 128.494 102.219 130.665L150.295 158.473C154.05 160.645 154.05 164.17 150.295 166.341L102.219 194.149C98.4642 196.321 92.3692 196.321 88.6148 194.149L40.5382 166.341C36.7838 164.17 36.7838 160.645 40.5382 158.473L88.6148 130.665Z" fill="white" />
      </mask>
      <g mask="url(#mask2_9_644)">
        <path d="M104.934 129.092C99.6712 126.047 91.1492 126.047 85.8868 129.092L91.3299 132.24C93.5841 130.934 97.2364 130.934 99.4906 132.24L104.934 129.092ZM147.567 160.047C149.821 161.353 149.821 163.462 147.567 164.768L153.01 167.916C158.273 164.871 158.273 159.945 153.01 156.9L147.567 160.047ZM99.4906 192.576C97.2364 193.882 93.5841 193.882 91.3299 192.576L85.8868 195.723C91.1492 198.768 99.6712 198.768 104.934 195.723L99.4906 192.576ZM43.2533 164.768C40.9991 163.462 40.9991 161.353 43.2533 160.047L37.8102 156.9C32.5478 159.945 32.5478 164.871 37.8102 167.916L43.2533 164.768ZM43.2533 160.047L91.3299 132.24L85.8868 129.092L37.8102 156.9L43.2533 160.047ZM91.3299 192.576L43.2533 164.768L37.8102 167.916L85.8868 195.723L91.3299 192.576ZM147.567 164.768L99.4906 192.576L104.934 195.723L153.01 167.916L147.567 164.768ZM99.4906 132.24L147.567 160.047L153.01 156.9L104.934 129.092L99.4906 132.24Z" fill="#1B1B1B" />
      </g>
      <path d="M120.408 212.333C122.151 213.309 123.227 215.15 123.227 217.149H127.94C127.94 213.435 125.937 210.02 122.701 208.21L120.408 212.333ZM123.227 227.677C123.227 231.383 125.23 234.806 128.466 236.607L130.76 232.484C129.016 231.509 127.94 229.667 127.94 227.677H123.227ZM128.466 236.607L197.098 274.974L199.391 270.851L130.76 232.484L128.466 236.607ZM123.227 217.141V227.677H127.94V217.141H123.227ZM119.764 211.971L120.408 212.333L122.701 208.21L122.057 207.848L119.764 211.971ZM197.098 274.974C198.237 275.612 199.666 275.203 200.302 274.062C200.938 272.921 200.53 271.489 199.391 270.851L197.098 274.974ZM122.057 207.848C120.918 207.211 119.489 207.62 118.853 208.761C118.216 209.902 118.625 211.334 119.764 211.971L122.057 207.848Z" fill="#4379CB" />
      <path d="M129.36 207.831C131.103 208.807 132.179 210.648 132.179 212.647H136.892C136.892 208.933 134.889 205.518 131.653 203.708L129.36 207.831ZM132.179 223.175C132.179 226.881 134.182 230.304 137.418 232.106L139.712 227.983C137.968 227.007 136.892 225.166 136.892 223.175H132.179ZM137.418 232.106L206.05 270.473L208.343 266.35L139.712 227.983L137.418 232.106ZM132.179 212.639V223.175H136.892V212.639H132.179ZM128.716 207.469L129.36 207.831L131.653 203.708L131.009 203.346L128.716 207.469ZM206.05 270.473C207.189 271.11 208.618 270.701 209.254 269.56C209.891 268.419 209.482 266.987 208.343 266.35L206.05 270.473ZM131.009 203.346C129.87 202.709 128.441 203.118 127.805 204.259C127.168 205.4 127.577 206.832 128.716 207.469L131.009 203.346Z" fill="#4379CB" />
      <path fill-rule="evenodd" clip-rule="evenodd" d="M304.722 166.688C308.476 164.516 314.571 164.516 318.325 166.688L440.759 237.505C442.636 238.591 443.579 240.015 443.579 241.439V280.782C443.579 282.206 442.636 283.63 440.759 284.716L318.325 355.533C314.571 357.705 308.476 357.705 304.722 355.533L182.288 284.716C180.411 283.63 179.468 282.206 179.468 280.782V241.439C179.468 240.015 180.411 238.591 182.288 237.505V239.818L302.852 170.079V207.108L304.722 206.03V166.688Z" fill="white" />
      <mask id="mask3_9_644" style="mask-type:luminance" maskUnits="userSpaceOnUse" x="179" y="165" width="265" height="193">
        <path d="M304.722 166.688C308.476 164.516 314.571 164.516 318.325 166.688L440.759 237.505C442.636 238.591 443.579 240.015 443.579 241.439V280.782C443.579 282.206 442.636 283.63 440.759 284.716L318.325 355.533C314.571 357.705 308.476 357.705 304.722 355.533L182.288 284.716C180.411 283.63 179.468 282.206 179.468 280.782V241.439C179.468 240.015 180.411 238.591 182.288 237.505V239.818L302.852 170.079V207.108L304.722 206.03V166.688Z" fill="white" />
      </mask>
      <g mask="url(#mask3_9_644)">
        <path d="M301.582 166.688V206.031H307.866V166.688H301.582ZM303.153 203.308L301.284 204.386L304.425 209.839L306.295 208.761L303.153 203.308ZM305.996 207.117V170.087H299.713V207.117H305.996ZM301.284 167.365L180.719 237.104L183.861 242.557L304.425 172.818L301.284 167.365ZM185.432 239.826V237.513H179.148V239.826H185.432ZM180.719 234.79C178.269 236.207 176.328 238.504 176.328 241.455H182.612C182.612 241.455 182.612 241.431 182.628 241.392C182.643 241.353 182.675 241.274 182.746 241.172C182.903 240.951 183.225 240.613 183.861 240.251L180.719 234.798V234.79ZM176.328 241.447V280.79H182.612V241.447H176.328ZM176.328 280.79C176.328 283.733 178.269 286.03 180.719 287.447L183.861 281.994C183.232 281.632 182.903 281.294 182.746 281.073C182.667 280.963 182.636 280.892 182.628 280.853C182.612 280.814 182.612 280.798 182.612 280.79H176.328ZM180.719 287.447L303.153 358.264L306.295 352.811L183.861 281.994L180.719 287.447ZM303.153 358.264C305.619 359.688 308.659 360.317 311.526 360.317C314.393 360.317 317.432 359.696 319.898 358.264L316.757 352.811C315.469 353.558 313.584 354.023 311.526 354.023C309.468 354.023 307.583 353.558 306.295 352.811L303.153 358.264ZM319.898 358.264L442.332 287.447L439.191 281.994L316.757 352.811L319.898 358.264ZM442.332 287.447C444.783 286.03 446.723 283.733 446.723 280.782H440.439C440.439 280.782 440.439 280.806 440.424 280.845C440.408 280.884 440.377 280.963 440.306 281.065C440.149 281.286 439.827 281.624 439.191 281.986L442.332 287.439V287.447ZM446.723 280.79V241.447H440.439V280.79H446.723ZM446.723 241.447C446.723 238.504 444.783 236.207 442.332 234.79L439.191 240.243C439.819 240.605 440.149 240.944 440.306 241.164C440.384 241.274 440.416 241.345 440.424 241.384C440.439 241.424 440.439 241.439 440.439 241.447H446.723ZM442.332 234.79L319.898 163.973L316.757 169.426L439.191 240.243L442.332 234.79ZM315.186 166.696V206.039H321.469V166.696H315.186ZM321.469 206.039V166.696H315.186V206.039H321.469ZM319.898 163.973C317.432 162.549 314.393 161.92 311.526 161.92C308.659 161.92 305.619 162.541 303.153 163.973L306.295 169.426C307.583 168.679 309.468 168.215 311.526 168.215C313.584 168.215 315.469 168.679 316.757 169.426L319.898 163.973ZM304.724 206.039L306.295 208.761C307.269 208.203 307.866 207.156 307.866 206.039H304.724ZM302.854 207.117H299.713C299.713 208.242 300.31 209.281 301.284 209.839C302.258 210.398 303.451 210.398 304.425 209.839L302.854 207.117ZM302.854 170.087H305.996C305.996 168.962 305.399 167.923 304.425 167.365C303.451 166.806 302.258 166.806 301.284 167.365L302.854 170.087ZM182.29 239.826H179.148C179.148 240.951 179.745 241.99 180.719 242.549C181.693 243.107 182.887 243.107 183.861 242.549L182.29 239.826ZM182.29 237.513H185.432C185.432 236.388 184.835 235.349 183.861 234.79C182.887 234.232 181.693 234.232 180.719 234.79L182.29 237.513ZM318.328 166.696L319.898 163.973C318.925 163.415 317.731 163.415 316.757 163.973C315.783 164.532 315.186 165.579 315.186 166.696H318.328ZM315.186 206.039C315.186 207.778 316.592 209.186 318.328 209.186C320.063 209.186 321.469 207.778 321.469 206.039H315.186ZM304.724 166.696L303.153 163.973C302.179 164.532 301.582 165.579 301.582 166.696H304.724ZM318.328 166.696H321.469C321.469 165.571 320.872 164.532 319.898 163.973L318.328 166.696Z" fill="#1B1B1B" />
      </g>
      <path d="M300.301 313.436L293.703 309.526V347.452L300.301 351.363V313.436Z" fill="#1B1B1B" />
      <path d="M294.101 347.451V309.525H293.315V347.451H294.101ZM300.51 351.031L293.912 347.113L293.512 347.79L300.109 351.708L300.51 351.031ZM299.921 313.443V351.37H300.706V313.443H299.921ZM293.512 309.863L300.109 313.782L300.51 313.105L293.912 309.186L293.512 309.863ZM293.708 347.451H293.315V347.679L293.512 347.797L293.708 347.459V347.451ZM300.306 351.37L300.109 351.708L300.699 352.062V351.37H300.306ZM300.306 313.443H300.699V313.215L300.502 313.097L300.306 313.435V313.443ZM293.708 309.525L293.905 309.186L293.315 308.832V309.525H293.708Z" fill="#1B1B1B" />
      <path d="M318.331 316.189L440.765 245.372V284.715L318.331 355.532V316.189Z" fill="#1B1B1B" />
      <path d="M304.727 316.19C308.481 318.362 314.576 318.362 318.331 316.19V355.533C314.576 357.704 308.481 357.704 304.727 355.533V316.19Z" fill="#1B1B1B" />
      <path d="M304.726 166.688C308.481 164.516 314.576 164.516 318.33 166.688L440.764 237.505C444.518 239.676 444.518 243.202 440.764 245.373L318.33 316.19C314.576 318.362 308.481 318.362 304.726 316.19L182.293 245.373C178.538 243.202 178.538 239.676 182.293 237.505L304.726 166.688Z" fill="white" />
      <mask id="mask4_9_644" style="mask-type:luminance" maskUnits="userSpaceOnUse" x="179" y="165" width="265" height="153">
        <path d="M304.726 166.688C308.481 164.516 314.576 164.516 318.33 166.688L440.764 237.505C444.518 239.676 444.518 243.202 440.764 245.373L318.33 316.19C314.576 318.362 308.481 318.362 304.726 316.19L182.293 245.373C178.538 243.202 178.538 239.676 182.293 237.505L304.726 166.688Z" fill="white" />
      </mask>
      <g mask="url(#mask4_9_644)">
        <path d="M321.05 165.115C315.787 162.07 307.265 162.07 302.003 165.115L307.446 168.262C309.7 166.956 313.352 166.956 315.607 168.262L321.05 165.115ZM438.048 239.079C440.303 240.385 440.303 242.494 438.048 243.8L443.491 246.948C448.754 243.903 448.754 238.977 443.491 235.932L438.048 239.079ZM315.615 314.617C313.36 315.923 309.708 315.923 307.454 314.617L302.011 317.765C307.273 320.81 315.795 320.81 321.058 317.765L315.615 314.617ZM185.012 243.8C182.758 242.494 182.758 240.385 185.012 239.079L179.569 235.932C174.307 238.977 174.307 243.903 179.569 246.948L185.012 243.8ZM185.012 239.079L307.446 168.262L302.003 165.115L179.569 235.932L185.012 239.079ZM307.446 314.617L185.012 243.8L179.569 246.948L302.003 317.765L307.446 314.617ZM438.048 243.8L315.615 314.617L321.058 317.765L443.491 246.948L438.048 243.8ZM315.615 168.262L438.048 239.079L443.491 235.932L321.058 165.115L315.615 168.262Z" fill="#1B1B1B" />
      </g>
      <path d="M194.837 271.183C196.167 270.414 196.169 267.923 194.841 265.62C193.514 263.317 191.36 262.073 190.03 262.842C188.7 263.611 188.698 266.102 190.026 268.405C191.353 270.709 193.507 271.952 194.837 271.183Z" fill="#9DF25B" />
      <path d="M206.213 277.758C207.543 276.989 207.545 274.498 206.218 272.195C204.89 269.892 202.736 268.648 201.406 269.417C200.077 270.186 200.075 272.677 201.402 274.98C202.729 277.283 204.883 278.527 206.213 277.758Z" fill="#9DF25B" />
      <path d="M217.572 284.329C218.902 283.56 218.904 281.07 217.577 278.766C216.249 276.463 214.095 275.22 212.765 275.989C211.436 276.758 211.434 279.249 212.761 281.552C214.088 283.855 216.243 285.099 217.572 284.329Z" fill="#9DF25B" />
      <path d="M228.923 290.9C230.253 290.131 230.255 287.64 228.927 285.337C227.6 283.034 225.446 281.79 224.116 282.559C222.786 283.328 222.784 285.819 224.112 288.122C225.439 290.426 227.593 291.669 228.923 290.9Z" fill="#4379CB" />
      <path fill-rule="evenodd" clip-rule="evenodd" d="M430.482 204.834C430.482 206.117 429.633 207.399 427.945 208.375L317.646 272.173V307.613L427.945 243.815C429.633 242.839 430.482 241.556 430.482 240.266V204.826V204.834ZM305.385 137.495C308.77 135.536 314.253 135.536 317.638 137.495L216.167 220.579L305.385 272.181C308.77 274.14 314.253 274.14 317.638 272.181V307.621C314.253 309.58 308.77 309.58 305.385 307.621L195.086 243.823C193.398 242.847 192.549 241.564 192.549 240.282V204.842C192.549 203.559 193.398 202.277 195.086 201.293L305.385 137.495Z" fill="#9DF25B" />
      <path d="M305.383 137.495C308.768 135.536 314.25 135.536 317.636 137.495L427.935 201.293C431.32 203.253 431.32 206.424 427.935 208.383L317.636 272.181C314.25 274.14 308.768 274.14 305.383 272.181L195.084 208.383C191.699 206.424 191.699 203.253 195.084 201.293L305.383 137.495Z" fill="#9DF25B" />
      <path fill-rule="evenodd" clip-rule="evenodd" d="M304.722 112.22C308.476 110.049 314.571 110.049 318.325 112.22L440.759 183.037C442.636 184.123 443.579 185.547 443.579 186.972V226.314C443.579 227.739 442.636 229.163 440.759 230.249L318.325 301.066C314.571 303.237 308.476 303.237 304.722 301.066L182.288 230.249C180.411 229.163 179.468 227.739 179.468 226.314V186.972C179.468 185.547 180.411 184.123 182.288 183.037V185.351L302.852 115.612V152.641L304.722 151.563V112.22Z" fill="white" />
      <mask id="mask5_9_644" style="mask-type:luminance" maskUnits="userSpaceOnUse" x="179" y="110" width="265" height="193">
        <path d="M304.722 112.22C308.476 110.049 314.571 110.049 318.325 112.22L440.759 183.037C442.636 184.123 443.579 185.547 443.579 186.972V226.314C443.579 227.739 442.636 229.163 440.759 230.249L318.325 301.066C314.571 303.237 308.476 303.237 304.722 301.066L182.288 230.249C180.411 229.163 179.468 227.739 179.468 226.314V186.972C179.468 185.547 180.411 184.123 182.288 183.037V185.351L302.852 115.612V152.641L304.722 151.563V112.22Z" fill="white" />
      </mask>
      <g mask="url(#mask5_9_644)">
        <path d="M301.582 112.221V151.563H307.866V112.221H301.582ZM303.153 148.841L301.284 149.919L304.425 155.372L306.295 154.294L303.153 148.841ZM305.996 152.649V115.62H299.713V152.649H305.996ZM301.284 112.897L180.719 182.636L183.861 188.089L304.425 118.35L301.284 112.897ZM185.432 185.359V183.046H179.148V185.359H185.432ZM180.719 180.323C178.269 181.739 176.328 184.037 176.328 186.988H182.612C182.612 186.988 182.612 186.964 182.628 186.925C182.643 186.885 182.675 186.807 182.746 186.704C182.903 186.484 183.225 186.146 183.861 185.784L180.719 180.331V180.323ZM176.328 186.98V226.323H182.612V186.98H176.328ZM176.328 226.323C176.328 229.265 178.269 231.563 180.719 232.979L183.861 227.526C183.232 227.164 182.903 226.826 182.746 226.606C182.667 226.496 182.636 226.425 182.628 226.385C182.612 226.346 182.612 226.33 182.612 226.323H176.328ZM180.719 232.979L303.153 303.796L306.295 298.343L183.861 227.526L180.719 232.979ZM303.153 303.796C305.619 305.22 308.659 305.85 311.526 305.85C314.393 305.85 317.432 305.228 319.898 303.796L316.757 298.343C315.469 299.091 313.584 299.555 311.526 299.555C309.468 299.555 307.583 299.091 306.295 298.343L303.153 303.796ZM319.898 303.796L442.332 232.979L439.191 227.526L316.757 298.343L319.898 303.796ZM442.332 232.979C444.783 231.563 446.723 229.265 446.723 226.315H440.439C440.439 226.315 440.439 226.338 440.424 226.378C440.408 226.417 440.377 226.496 440.306 226.598C440.149 226.818 439.827 227.157 439.191 227.519L442.332 232.971V232.979ZM446.723 226.323V186.98H440.439V226.323H446.723ZM446.723 186.98C446.723 184.037 444.783 181.739 442.332 180.323L439.191 185.776C439.819 186.138 440.149 186.476 440.306 186.697C440.384 186.807 440.416 186.878 440.424 186.917C440.439 186.956 440.439 186.972 440.439 186.98H446.723ZM442.332 180.323L319.898 109.506L316.757 114.959L439.191 185.776L442.332 180.323ZM315.186 112.229V151.571H321.469V112.229H315.186ZM321.469 151.571V112.229H315.186V151.571H321.469ZM319.898 109.506C317.432 108.082 314.393 107.452 311.526 107.452C308.659 107.452 305.619 108.074 303.153 109.506L306.295 114.959C307.583 114.211 309.468 113.747 311.526 113.747C313.584 113.747 315.469 114.211 316.757 114.959L319.898 109.506ZM304.724 151.571L306.295 154.294C307.269 153.735 307.866 152.689 307.866 151.571H304.724ZM302.854 152.649H299.713C299.713 153.775 300.31 154.813 301.284 155.372C302.258 155.931 303.451 155.931 304.425 155.372L302.854 152.649ZM302.854 115.62H305.996C305.996 114.495 305.399 113.456 304.425 112.897C303.451 112.339 302.258 112.339 301.284 112.897L302.854 115.62ZM182.29 185.359H179.148C179.148 186.484 179.745 187.523 180.719 188.081C181.693 188.64 182.887 188.64 183.861 188.081L182.29 185.359ZM182.29 183.046H185.432C185.432 181.92 184.835 180.882 183.861 180.323C182.887 179.764 181.693 179.764 180.719 180.323L182.29 183.046ZM318.328 112.229L319.898 109.506C318.925 108.947 317.731 108.947 316.757 109.506C315.783 110.065 315.186 111.111 315.186 112.229H318.328ZM315.186 151.571C315.186 153.31 316.592 154.719 318.328 154.719C320.063 154.719 321.469 153.31 321.469 151.571H315.186ZM304.724 112.229L303.153 109.506C302.179 110.065 301.582 111.111 301.582 112.229H304.724ZM318.328 112.229H321.469C321.469 111.103 320.872 110.065 319.898 109.506L318.328 112.229Z" fill="#1B1B1B" />
      </g>
      <path d="M300.301 258.97L293.703 255.052V292.978L300.301 296.897V258.97Z" fill="#1B1B1B" />
      <path d="M294.101 292.977V255.051H293.315V292.977H294.101ZM300.51 296.557L293.912 292.639L293.512 293.316L300.109 297.234L300.51 296.557ZM299.921 258.969V296.896H300.706V258.969H299.921ZM293.512 255.389L300.109 259.308L300.51 258.631L293.912 254.712L293.512 255.389ZM293.708 292.977H293.315V293.205L293.512 293.323L293.708 292.985V292.977ZM300.306 296.896L300.109 297.234L300.699 297.588V296.896H300.306ZM300.306 258.969H300.699V258.741L300.502 258.623L300.306 258.962V258.969ZM293.708 255.051L293.905 254.712L293.315 254.358V255.051H293.708Z" fill="#1B1B1B" />
      <path d="M318.331 261.724L440.765 190.907V230.25L318.331 301.067V261.724Z" fill="#1B1B1B" />
      <path d="M304.727 261.724C308.481 263.895 314.576 263.895 318.331 261.724V301.066C314.576 303.238 308.481 303.238 304.727 301.066V261.724Z" fill="#1B1B1B" />
      <path d="M304.726 112.22C308.481 110.049 314.576 110.049 318.33 112.22L440.764 183.037C444.518 185.209 444.518 188.734 440.764 190.906L318.33 261.723C314.576 263.895 308.481 263.895 304.726 261.723L182.293 190.906C178.538 188.734 178.538 185.209 182.293 183.037L304.726 112.22Z" fill="white" />
      <mask id="mask6_9_644" style="mask-type:luminance" maskUnits="userSpaceOnUse" x="179" y="110" width="265" height="154">
        <path d="M304.726 112.22C308.481 110.049 314.576 110.049 318.33 112.22L440.764 183.037C444.518 185.209 444.518 188.734 440.764 190.906L318.33 261.723C314.576 263.895 308.481 263.895 304.726 261.723L182.293 190.906C178.538 188.734 178.538 185.209 182.293 183.037L304.726 112.22Z" fill="white" />
      </mask>
      <g mask="url(#mask6_9_644)">
        <path d="M321.05 110.647C315.787 107.602 307.265 107.602 302.003 110.647L307.446 113.795C309.7 112.489 313.352 112.489 315.607 113.795L321.05 110.647ZM438.048 184.612C440.303 185.918 440.303 188.027 438.048 189.333L443.491 192.48C448.754 189.435 448.754 184.51 443.491 181.464L438.048 184.612ZM315.615 260.15C313.36 261.456 309.708 261.456 307.454 260.15L302.011 263.297C307.273 266.342 315.795 266.342 321.058 263.297L315.615 260.15ZM185.012 189.333C182.758 188.027 182.758 185.918 185.012 184.612L179.569 181.464C174.307 184.51 174.307 189.435 179.569 192.48L185.012 189.333ZM185.012 184.612L307.446 113.795L302.003 110.647L179.569 181.464L185.012 184.612ZM307.446 260.15L185.012 189.333L179.569 192.48L302.003 263.297L307.446 260.15ZM438.048 189.333L315.615 260.15L321.058 263.297L443.491 192.48L438.048 189.333ZM315.615 113.795L438.048 184.612L443.491 181.464L321.058 110.647L315.615 113.795Z" fill="#1B1B1B" />
      </g>
      <path d="M194.846 216.72C196.176 215.951 196.178 213.46 194.85 211.157C193.523 208.854 191.369 207.61 190.039 208.379C188.709 209.148 188.707 211.639 190.034 213.942C191.362 216.246 193.516 217.489 194.846 216.72Z" fill="#9DF25B" />
      <path d="M207.204 221.082C207.204 223.254 205.681 224.135 203.804 223.05C201.926 221.964 200.403 219.32 200.403 217.148C200.403 214.976 201.926 214.095 203.804 215.181C205.681 216.267 207.204 218.911 207.204 221.082Z" fill="#9DF25B" />
      <path d="M218.563 227.653C218.563 229.825 217.04 230.706 215.163 229.62C213.285 228.534 211.762 225.89 211.762 223.719C211.762 221.547 213.285 220.666 215.163 221.752C217.04 222.837 218.563 225.481 218.563 227.653Z" fill="#9DF25B" />
      <path d="M229.918 234.222C229.918 236.394 228.394 237.275 226.517 236.19C224.64 235.104 223.116 232.46 223.116 230.288C223.116 228.116 224.64 227.235 226.517 228.321C228.394 229.407 229.918 232.051 229.918 234.222Z" fill="#4379CB" />
      <path fill-rule="evenodd" clip-rule="evenodd" d="M430.482 150.801C430.482 152.083 429.633 153.366 427.945 154.341L317.646 218.14V253.58L427.945 189.781C429.633 188.806 430.482 187.523 430.482 186.233V150.793V150.801ZM305.385 83.4616C308.77 81.5023 314.253 81.5023 317.638 83.4616L216.167 166.546L305.385 218.148C308.77 220.107 314.253 220.107 317.638 218.148V253.587C314.253 255.547 308.77 255.547 305.385 253.587L195.086 189.789C193.398 188.814 192.549 187.531 192.549 186.248V150.808C192.549 149.526 193.398 148.243 195.086 147.26L305.385 83.4616Z" fill="#9DF25B" />
      <path d="M305.383 83.4539C308.768 81.4946 314.25 81.4946 317.636 83.4539L427.935 147.252C431.32 149.211 431.32 152.382 427.935 154.342L317.636 218.14C314.25 220.099 308.768 220.099 305.383 218.14L195.084 154.342C191.699 152.382 191.699 149.211 195.084 147.252L305.383 83.4539Z" fill="#9DF25B" />
      <path fill-rule="evenodd" clip-rule="evenodd" d="M304.722 57.5263C308.476 55.3545 314.571 55.3545 318.325 57.5263L440.759 128.343C442.636 129.429 443.579 130.853 443.579 132.277V171.62C443.579 173.044 442.636 174.469 440.759 175.554L318.325 246.371C314.571 248.543 308.476 248.543 304.722 246.371L182.288 175.554C180.411 174.469 179.468 173.044 179.468 171.62V132.277C179.468 130.853 180.411 129.429 182.288 128.343V130.657L302.852 60.9176V97.947L304.722 96.869V57.5263Z" fill="white" />
      <mask id="mask7_9_644" style="mask-type:luminance" maskUnits="userSpaceOnUse" x="179" y="55" width="265" height="194">
        <path d="M304.722 57.5263C308.476 55.3545 314.571 55.3545 318.325 57.5263L440.759 128.343C442.636 129.429 443.579 130.853 443.579 132.277V171.62C443.579 173.044 442.636 174.469 440.759 175.554L318.325 246.371C314.571 248.543 308.476 248.543 304.722 246.371L182.288 175.554C180.411 174.469 179.468 173.044 179.468 171.62V132.277C179.468 130.853 180.411 129.429 182.288 128.343V130.657L302.852 60.9176V97.947L304.722 96.869V57.5263Z" fill="white" />
      </mask>
      <g mask="url(#mask7_9_644)">
        <path d="M301.582 57.5266V96.8693H307.866V57.5266H301.582ZM303.153 94.1468L301.284 95.2248L304.425 100.678L306.295 99.5997L303.153 94.1468ZM305.996 97.9552V60.9258H299.713V97.9552H305.996ZM301.284 58.2033L180.719 127.942L183.861 133.395L304.425 63.6562L301.284 58.2033ZM185.432 130.665V128.351H179.148V130.665H185.432ZM180.719 125.629C178.269 127.045 176.328 129.343 176.328 132.294H182.612C182.612 132.294 182.612 132.27 182.628 132.231C182.643 132.191 182.675 132.113 182.746 132.01C182.903 131.79 183.225 131.452 183.861 131.09L180.719 125.637V125.629ZM176.328 132.286V171.628H182.612V132.286H176.328ZM176.328 171.628C176.328 174.571 178.269 176.869 180.719 178.285L183.861 172.832C183.232 172.47 182.903 172.132 182.746 171.912C182.667 171.802 182.636 171.731 182.628 171.691C182.612 171.652 182.612 171.636 182.612 171.628H176.328ZM180.719 178.285L303.153 249.102L306.295 243.649L183.861 172.832L180.719 178.285ZM303.153 249.102C305.619 250.526 308.659 251.156 311.526 251.156C314.393 251.156 317.432 250.534 319.898 249.102L316.757 243.649C315.469 244.397 313.584 244.861 311.526 244.861C309.468 244.861 307.583 244.397 306.295 243.649L303.153 249.102ZM319.898 249.102L442.332 178.285L439.191 172.832L316.757 243.649L319.898 249.102ZM442.332 178.285C444.783 176.869 446.723 174.571 446.723 171.621H440.439C440.439 171.621 440.439 171.644 440.424 171.684C440.408 171.723 440.377 171.802 440.306 171.904C440.149 172.124 439.827 172.462 439.191 172.824L442.332 178.277V178.285ZM446.723 171.628V132.286H440.439V171.628H446.723ZM446.723 132.286C446.723 129.343 444.783 127.045 442.332 125.629L439.191 131.082C439.819 131.444 440.149 131.782 440.306 132.002C440.384 132.113 440.416 132.183 440.424 132.223C440.439 132.262 440.439 132.278 440.439 132.286H446.723ZM442.332 125.629L319.898 54.8119L316.757 60.2648L439.191 131.082L442.332 125.629ZM315.186 57.5345V96.8772H321.469V57.5345H315.186ZM321.469 96.8772V57.5345H315.186V96.8772H321.469ZM319.898 54.8119C317.432 53.3877 314.393 52.7583 311.526 52.7583C308.659 52.7583 305.619 53.3799 303.153 54.8119L306.295 60.2648C307.583 59.5173 309.468 59.0531 311.526 59.0531C313.584 59.0531 315.469 59.5173 316.757 60.2648L319.898 54.8119ZM304.724 96.8772L306.295 99.5997C307.269 99.0411 307.866 97.9945 307.866 96.8772H304.724ZM302.854 97.9552H299.713C299.713 99.0804 300.31 100.119 301.284 100.678C302.258 101.236 303.451 101.236 304.425 100.678L302.854 97.9552ZM302.854 60.9258H305.996C305.996 59.8006 305.399 58.762 304.425 58.2033C303.451 57.6446 302.258 57.6446 301.284 58.2033L302.854 60.9258ZM182.29 130.665H179.148C179.148 131.79 179.745 132.829 180.719 133.387C181.693 133.946 182.887 133.946 183.861 133.387L182.29 130.665ZM182.29 128.351H185.432C185.432 127.226 184.835 126.188 183.861 125.629C182.887 125.07 181.693 125.07 180.719 125.629L182.29 128.351ZM318.328 57.5345L319.898 54.8119C318.925 54.2533 317.731 54.2533 316.757 54.8119C315.783 55.3706 315.186 56.4171 315.186 57.5345H318.328ZM315.186 96.8772C315.186 98.6162 316.592 100.025 318.328 100.025C320.063 100.025 321.469 98.6162 321.469 96.8772H315.186ZM304.724 57.5345L303.153 54.8119C302.179 55.3706 301.582 56.4171 301.582 57.5345H304.724ZM318.328 57.5345H321.469C321.469 56.4093 320.872 55.3706 319.898 54.8119L318.328 57.5345Z" fill="#1B1B1B" />
      </g>
      <path d="M300.301 204.275L293.703 200.364V238.29L300.301 242.201V204.275Z" fill="#1B1B1B" />
      <path d="M294.101 238.291V200.364H293.315V238.291H294.101ZM300.51 241.871L293.912 237.952L293.512 238.629L300.109 242.548L300.51 241.871ZM299.921 204.283V242.209H300.706V204.283H299.921ZM293.512 200.703L300.109 204.621L300.51 203.945L293.912 200.026L293.512 200.703ZM293.708 238.291H293.315V238.519L293.512 238.637L293.708 238.299V238.291ZM300.306 242.209L300.109 242.548L300.699 242.902V242.209H300.306ZM300.306 204.283H300.699V204.055L300.502 203.937L300.306 204.275V204.283ZM293.708 200.364L293.905 200.026L293.315 199.672V200.364H293.708Z" fill="#1B1B1B" />
      <path d="M318.331 207.03L440.765 136.213V175.556L318.331 246.373V207.03Z" fill="#1B1B1B" />
      <path d="M304.727 207.029C308.481 209.201 314.576 209.201 318.331 207.029V246.372C314.576 248.544 308.481 248.544 304.727 246.372V207.029Z" fill="#1B1B1B" />
      <path d="M304.726 57.5263C308.481 55.3545 314.576 55.3545 318.33 57.5263L440.764 128.343C444.518 130.515 444.518 134.04 440.764 136.212L318.33 207.029C314.576 209.2 308.481 209.2 304.726 207.029L182.293 136.212C178.538 134.04 178.538 130.515 182.293 128.343L304.726 57.5263Z" fill="white" />
      <mask id="mask8_9_644" style="mask-type:luminance" maskUnits="userSpaceOnUse" x="179" y="55" width="265" height="154">
        <path d="M304.726 57.5263C308.481 55.3545 314.576 55.3545 318.33 57.5263L440.764 128.343C444.518 130.515 444.518 134.04 440.764 136.212L318.33 207.029C314.576 209.2 308.481 209.2 304.726 207.029L182.293 136.212C178.538 134.04 178.538 130.515 182.293 128.343L304.726 57.5263Z" fill="white" />
      </mask>
      <g mask="url(#mask8_9_644)">
        <path d="M321.05 55.9533C315.787 52.9082 307.265 52.9082 302.003 55.9533L307.446 59.1008C309.7 57.7946 313.352 57.7946 315.607 59.1008L321.05 55.9533ZM438.048 129.918C440.303 131.224 440.303 133.333 438.048 134.639L443.491 137.786C448.754 134.741 448.754 129.815 443.491 126.77L438.048 129.918ZM315.615 205.456C313.36 206.762 309.708 206.762 307.454 205.456L302.011 208.603C307.273 211.648 315.795 211.648 321.058 208.603L315.615 205.456ZM185.012 134.639C182.758 133.333 182.758 131.224 185.012 129.918L179.569 126.77C174.307 129.815 174.307 134.741 179.569 137.786L185.012 134.639ZM185.012 129.918L307.446 59.1008L302.003 55.9533L179.569 126.77L185.012 129.918ZM307.446 205.456L185.012 134.639L179.569 137.786L302.003 208.603L307.446 205.456ZM438.048 134.639L315.615 205.456L321.058 208.603L443.491 137.786L438.048 134.639ZM315.615 59.1008L438.048 129.918L443.491 126.77L321.058 55.9533L315.615 59.1008Z" fill="#1B1B1B" />
      </g>
      <path d="M194.846 162.02C196.176 161.251 196.178 158.761 194.85 156.457C193.523 154.154 191.369 152.91 190.039 153.68C188.709 154.449 188.707 156.94 190.034 159.243C191.362 161.546 193.516 162.79 194.846 162.02Z" fill="#9DF25B" />
      <path d="M207.204 166.388C207.204 168.56 205.681 169.441 203.804 168.355C201.926 167.27 200.403 164.626 200.403 162.454C200.403 160.282 201.926 159.401 203.804 160.487C205.681 161.573 207.204 164.217 207.204 166.388Z" fill="#9DF25B" />
      <path d="M218.563 172.958C218.563 175.13 217.04 176.011 215.163 174.925C213.285 173.839 211.762 171.195 211.762 169.024C211.762 166.852 213.285 165.971 215.163 167.056C217.04 168.142 218.563 170.786 218.563 172.958Z" fill="#9DF25B" />
      <path d="M229.918 179.528C229.918 181.7 228.394 182.581 226.517 181.495C224.64 180.41 223.116 177.766 223.116 175.594C223.116 173.422 224.64 172.541 226.517 173.627C228.394 174.713 229.918 177.357 229.918 179.528Z" fill="#4379CB" />
      <path fill-rule="evenodd" clip-rule="evenodd" d="M430.482 96.1063C430.482 97.3889 429.633 98.6715 427.945 99.6472L317.646 163.445V198.885L427.945 135.087C429.633 134.111 430.482 132.829 430.482 131.538V96.0984V96.1063ZM305.385 28.7673C308.77 26.808 314.253 26.808 317.638 28.7673L216.167 111.851L305.385 163.453C308.77 165.412 314.253 165.412 317.638 163.453V198.893C314.253 200.852 308.77 200.852 305.385 198.893L195.086 135.095C193.398 134.119 192.549 132.837 192.549 131.554V96.1142C192.549 94.8316 193.398 93.549 195.086 92.5655L305.385 28.7673Z" fill="#9DF25B" />
      <path d="M305.383 28.7675C308.768 26.8082 314.25 26.8082 317.636 28.7675L427.935 92.5657C431.32 94.5249 431.32 97.6959 427.935 99.6552L317.636 163.453C314.25 165.413 308.768 165.413 305.383 163.453L195.084 99.6552C191.699 97.6959 191.699 94.5249 195.084 92.5657L305.383 28.7675Z" fill="#9DF25B" />
      <path fill-rule="evenodd" clip-rule="evenodd" d="M304.722 3.93415C308.476 1.76243 314.571 1.76243 318.325 3.93415L440.759 74.7511C442.636 75.837 443.579 77.2612 443.579 78.6854V118.028C443.579 119.452 442.636 120.877 440.759 121.962L318.325 192.779C314.571 194.951 308.476 194.951 304.722 192.779L182.288 121.962C180.411 120.877 179.468 119.452 179.468 118.028V78.6854C179.468 77.2612 180.411 75.837 182.288 74.7511V77.0645L302.852 7.32549V44.3549L304.722 43.2769V3.93415Z" fill="white" />
      <mask id="mask9_9_644" style="mask-type:luminance" maskUnits="userSpaceOnUse" x="179" y="2" width="265" height="193">
        <path d="M304.722 3.93415C308.476 1.76243 314.571 1.76243 318.325 3.93415L440.759 74.7511C442.636 75.837 443.579 77.2612 443.579 78.6854V118.028C443.579 119.452 442.636 120.877 440.759 121.962L318.325 192.779C314.571 194.951 308.476 194.951 304.722 192.779L182.288 121.962C180.411 120.877 179.468 119.452 179.468 118.028V78.6854C179.468 77.2612 180.411 75.837 182.288 74.7511V77.0645L302.852 7.32549V44.3549L304.722 43.2769V3.93415Z" fill="white" />
      </mask>
      <g mask="url(#mask9_9_644)">
        <path d="M301.582 3.93473V43.2775H307.866V3.93473H301.582ZM303.153 40.555L301.284 41.633L304.425 47.0859L306.295 46.0079L303.153 40.555ZM305.996 44.3633V7.32608H299.713V44.3555H305.996V44.3633ZM301.284 4.61143L180.719 74.3504L183.861 79.8033L304.425 10.0565L301.284 4.60356V4.61143ZM185.432 77.0729V74.7596H179.148V77.0729H185.432ZM180.719 72.037C178.269 73.4534 176.328 75.751 176.328 78.7017H182.612C182.612 78.7017 182.612 78.6781 182.628 78.6387C182.643 78.5994 182.675 78.5207 182.746 78.4184C182.903 78.1981 183.225 77.8598 183.861 77.4978L180.719 72.0449V72.037ZM176.328 78.6938V118.037H182.612V78.6938H176.328ZM176.328 118.037C176.328 120.979 178.269 123.277 180.719 124.693L183.861 119.24C183.232 118.879 182.903 118.54 182.746 118.32C182.667 118.21 182.636 118.139 182.628 118.1C182.612 118.06 182.612 118.044 182.612 118.037H176.328ZM180.719 124.693L303.153 195.51L306.295 190.057L183.861 119.24L180.719 124.693ZM303.153 195.51C305.619 196.935 308.659 197.564 311.526 197.564C314.393 197.564 317.432 196.942 319.898 195.51L316.757 190.057C315.469 190.805 313.584 191.269 311.526 191.269C309.468 191.269 307.583 190.805 306.295 190.057L303.153 195.51ZM319.898 195.51L442.332 124.693L439.191 119.24L316.757 190.057L319.898 195.51ZM442.332 124.693C444.783 123.277 446.723 120.979 446.723 118.029H440.439C440.439 118.029 440.439 118.052 440.424 118.092C440.408 118.131 440.377 118.21 440.306 118.312C440.149 118.532 439.827 118.871 439.191 119.233L442.332 124.686V124.693ZM446.723 118.037V78.6938H440.439V118.037H446.723ZM446.723 78.6938C446.723 75.751 444.783 73.4534 442.332 72.037L439.191 77.4899C439.819 77.8519 440.149 78.1902 440.306 78.4106C440.384 78.5207 440.416 78.5915 440.424 78.6309C440.439 78.6702 440.439 78.686 440.439 78.6938H446.723ZM442.332 72.037L319.898 1.21222L316.757 6.66512L439.191 77.4821L442.332 72.0292V72.037ZM315.186 3.93473V43.2775H321.469V3.93473H315.186ZM321.469 43.2775V3.93473H315.186V43.2775H321.469ZM319.898 1.21222C317.432 -0.211992 314.393 -0.841476 311.526 -0.841476C308.659 -0.841476 305.619 -0.219861 303.153 1.21222L306.295 6.66512C307.583 5.91761 309.468 5.45336 311.526 5.45336C313.584 5.45336 315.469 5.91761 316.757 6.66512L319.898 1.21222ZM304.724 43.2775L306.295 46C307.269 45.4413 307.866 44.3948 307.866 43.2775H304.724ZM302.854 44.3555H299.713C299.713 45.4807 300.31 46.5193 301.284 47.078C302.258 47.6367 303.451 47.6367 304.425 47.078L302.854 44.3555ZM302.854 7.32608H305.996C305.996 6.20088 305.399 5.16223 304.425 4.60356C303.451 4.04489 302.258 4.04489 301.284 4.60356L302.854 7.32608ZM182.29 77.065H179.148C179.148 78.1902 179.745 79.2289 180.719 79.7876C181.693 80.3462 182.887 80.3462 183.861 79.7876L182.29 77.065ZM182.29 74.7517H185.432C185.432 73.6265 184.835 72.5878 183.861 72.0292C182.887 71.4705 181.693 71.4705 180.719 72.0292L182.29 74.7517ZM318.328 3.93473L319.898 1.21222C318.925 0.653548 317.731 0.653548 316.757 1.21222C315.783 1.77088 315.186 2.8174 315.186 3.93473H318.328ZM315.186 43.2775C315.186 45.0164 316.592 46.4249 318.328 46.4249C320.063 46.4249 321.469 45.0164 321.469 43.2775H315.186ZM304.724 3.93473L303.153 1.21222C302.179 1.77088 301.582 2.8174 301.582 3.93473H304.724ZM318.328 3.93473H321.469C321.469 2.80953 320.872 1.77088 319.898 1.21222L318.328 3.93473Z" fill="#1B1B1B" />
      </g>
      <path d="M300.301 150.683L293.703 146.764V184.691L300.301 188.609V150.683Z" fill="#1B1B1B" />
      <path d="M294.101 184.69V146.764H293.315V184.69H294.101ZM300.51 188.27L293.912 184.352L293.512 185.028L300.109 188.947L300.51 188.27ZM299.921 150.682V188.608H300.706V150.682H299.921ZM293.512 147.102L300.109 151.02L300.51 150.344L293.912 146.425L293.512 147.102ZM293.708 184.69H293.315V184.918L293.512 185.036L293.708 184.698V184.69ZM300.306 188.608L300.109 188.947L300.699 189.301V188.608H300.306ZM300.306 150.682H300.699V150.454L300.502 150.336L300.306 150.674V150.682ZM293.708 146.764L293.905 146.425L293.315 146.071V146.764H293.708Z" fill="#1B1B1B" />
      <path d="M318.331 153.437L440.765 82.6199V121.963L318.331 192.78V153.437Z" fill="#1B1B1B" />
      <path d="M304.727 153.437C308.481 155.609 314.576 155.609 318.331 153.437V192.78C314.576 194.952 308.481 194.952 304.727 192.78V153.437Z" fill="#1B1B1B" />
      <path d="M304.726 3.93415C308.481 1.76243 314.576 1.76243 318.33 3.93415L440.764 74.7511C444.518 76.9228 444.518 80.4479 440.764 82.6196L318.33 153.437C314.576 155.608 308.481 155.608 304.726 153.437L182.293 82.6196C178.538 80.4479 178.538 76.9228 182.293 74.7511L304.726 3.93415Z" fill="white" />
      <mask id="mask10_9_644" style="mask-type:luminance" maskUnits="userSpaceOnUse" x="179" y="2" width="265" height="154">
        <path d="M304.726 3.93415C308.481 1.76243 314.576 1.76243 318.33 3.93415L440.764 74.7511C444.518 76.9228 444.518 80.4479 440.764 82.6196L318.33 153.437C314.576 155.608 308.481 155.608 304.726 153.437L182.293 82.6196C178.538 80.4479 178.538 76.9228 182.293 74.7511L304.726 3.93415Z" fill="white" />
      </mask>
      <g mask="url(#mask10_9_644)">
        <path d="M321.05 2.36016C315.787 -0.684973 307.265 -0.684973 302.003 2.36016L307.446 5.50758C309.7 4.2014 313.352 4.2014 315.607 5.50758L321.05 2.36016ZM438.048 76.3245C440.303 77.6307 440.303 79.7395 438.048 81.0456L443.491 84.1931C448.754 81.1479 448.754 76.2222 443.491 73.1771L438.048 76.3245ZM315.615 151.863C313.36 153.169 309.708 153.169 307.454 151.863L302.011 155.01C307.273 158.055 315.795 158.055 321.058 155.01L315.615 151.863ZM185.012 81.0456C182.758 79.7395 182.758 77.6307 185.012 76.3245L179.569 73.1771C174.307 76.2222 174.307 81.1479 179.569 84.1931L185.012 81.0456ZM185.012 76.3245L307.446 5.50758L302.003 2.36016L179.569 73.1771L185.012 76.3245ZM307.446 151.863L185.012 81.0456L179.569 84.1931L302.003 155.01L307.446 151.863ZM438.048 81.0456L315.615 151.863L321.058 155.01L443.491 84.1931L438.048 81.0456ZM315.607 5.50758L438.041 76.3245L443.484 73.1771L321.05 2.36016L315.607 5.50758Z" fill="#1B1B1B" />
      </g>
      <path d="M194.846 108.432C196.176 107.662 196.178 105.172 194.85 102.868C193.523 100.565 191.369 99.3216 190.039 100.091C188.709 100.86 188.707 103.351 190.034 105.654C191.362 107.957 193.516 109.201 194.846 108.432Z" fill="#9DF25B" />
      <path d="M207.204 112.796C207.204 114.968 205.681 115.849 203.804 114.763C201.926 113.678 200.403 111.034 200.403 108.862C200.403 106.69 201.926 105.809 203.804 106.895C205.681 107.981 207.204 110.625 207.204 112.796Z" fill="#9DF25B" />
      <path d="M218.563 119.366C218.563 121.537 217.04 122.419 215.163 121.333C213.285 120.247 211.762 117.603 211.762 115.431C211.762 113.26 213.285 112.378 215.163 113.464C217.04 114.55 218.563 117.194 218.563 119.366Z" fill="#9DF25B" />
      <path d="M229.918 125.936C229.918 128.108 228.394 128.989 226.517 127.903C224.64 126.817 223.116 124.174 223.116 122.002C223.116 119.83 224.64 118.949 226.517 120.035C228.394 121.121 229.918 123.765 229.918 125.936Z" fill="#4379CB" />
      <path d="M266.265 316.45C264.521 317.426 263.445 319.267 263.445 321.265H258.732C258.732 317.552 260.735 314.137 263.971 312.327L266.265 316.45ZM263.445 331.794C263.445 335.5 261.442 338.922 258.206 340.724L255.913 336.601C257.656 335.626 258.732 333.784 258.732 331.794H263.445ZM258.206 340.724L189.575 379.091L187.281 374.968L255.913 336.601L258.206 340.724ZM263.445 321.258V331.794H258.732V321.258H263.445ZM266.909 316.088L266.265 316.45L263.971 312.327L264.615 311.965L266.909 316.088ZM189.575 379.091C188.436 379.729 187.006 379.32 186.37 378.179C185.734 377.038 186.142 375.606 187.281 374.968L189.575 379.091ZM264.615 311.965C265.754 311.327 267.184 311.737 267.82 312.878C268.456 314.019 268.048 315.451 266.909 316.088L264.615 311.965Z" fill="#4379CB" />
      <path d="M257.308 311.948C255.564 312.924 254.488 314.765 254.488 316.764H249.776C249.776 313.05 251.779 309.635 255.015 307.825L257.308 311.948ZM254.488 327.292C254.488 330.998 252.486 334.421 249.25 336.223L246.956 332.1C248.7 331.124 249.776 329.283 249.776 327.292H254.488ZM249.25 336.223L180.618 374.59L178.325 370.467L246.956 332.1L249.25 336.223ZM254.488 316.756V327.292H249.776V316.756H254.488ZM257.952 311.586L257.308 311.948L255.015 307.825L255.659 307.463L257.952 311.586ZM180.618 374.59C179.479 375.227 178.05 374.818 177.414 373.677C176.777 372.536 177.186 371.104 178.325 370.467L180.618 374.59ZM255.659 307.463C256.798 306.826 258.227 307.235 258.863 308.376C259.5 309.517 259.091 310.949 257.952 311.586L255.659 307.463Z" fill="#4379CB" />
      <path d="M473.781 309.556C477.535 307.385 483.63 307.385 487.385 309.556L569.196 356.878C572.95 359.05 572.95 362.575 569.196 364.746L487.385 412.068C483.63 414.24 477.535 414.24 473.781 412.068L391.97 364.746C388.215 362.575 388.215 359.05 391.97 356.878L473.781 309.556Z" fill="#1B1B1B" />
      <path d="M135.692 335.562C139.447 333.39 145.542 333.39 149.296 335.562L231.107 382.883C234.862 385.055 234.862 388.58 231.107 390.752L149.296 438.073C145.542 440.245 139.447 440.245 135.692 438.073L53.8812 390.752C50.1268 388.58 50.1268 385.055 53.8812 382.883L135.692 335.562Z" fill="#1B1B1B" />
      <path fill-rule="evenodd" clip-rule="evenodd" d="M217.323 363.212C219.2 362.126 220.143 360.702 220.143 359.278V382.883C220.143 384.307 219.2 385.732 217.323 386.818L149.304 426.16C145.55 428.332 139.455 428.332 135.701 426.16L67.6818 386.818V363.212L135.701 402.555C139.455 404.726 145.55 404.726 149.304 402.555L217.323 363.212ZM64.8621 359.278C64.8621 360.702 65.8046 362.126 67.6818 363.212V386.818C65.8046 385.732 64.8621 384.307 64.8621 382.883V359.278Z" fill="#D4D4D4" />
      <path d="M135.45 426.027V402.406L129.174 398.778V422.4L135.45 426.027Z" fill="white" />
      <path d="M64.6832 359.277V388.446H67.8249V359.277H64.6832ZM64.6832 388.446C64.6832 389.312 65.3901 390.02 66.254 390.02C67.118 390.02 67.8249 389.312 67.8249 388.446H64.6832ZM67.8249 359.277C67.8249 358.412 67.118 357.704 66.254 357.704C65.3901 357.704 64.6832 358.412 64.6832 359.277H67.8249Z" fill="#1B1B1B" />
      <path d="M140.939 403.885V433.053H144.081V403.885H140.939ZM140.939 433.053C140.939 433.919 141.646 434.627 142.51 434.627C143.374 434.627 144.081 433.919 144.081 433.053H140.939ZM144.081 403.885C144.081 403.019 143.374 402.311 142.51 402.311C141.646 402.311 140.939 403.019 140.939 403.885H144.081Z" fill="#1B1B1B" />
      <path d="M217.064 359.678V388.847H220.206V359.678H217.064ZM217.064 388.847C217.064 389.713 217.771 390.421 218.635 390.421C219.499 390.421 220.206 389.713 220.206 388.847H217.064ZM220.206 359.678C220.206 358.813 219.499 358.105 218.635 358.105C217.771 358.105 217.064 358.813 217.064 359.678H220.206Z" fill="#1B1B1B" />
      <path d="M135.692 316.001C139.447 313.829 145.542 313.829 149.296 316.001L217.315 355.343C221.069 357.515 221.069 361.04 217.315 363.212L149.296 402.555C145.542 404.726 139.447 404.726 135.692 402.555L67.6733 363.212C63.9189 361.04 63.9189 357.515 67.6733 355.343L135.692 316.001Z" fill="#9DF25B" />
      <mask id="mask11_9_644" style="mask-type:luminance" maskUnits="userSpaceOnUse" x="64" y="314" width="157" height="91">
        <path d="M135.692 316.001C139.447 313.829 145.542 313.829 149.296 316.001L217.315 355.343C221.069 357.515 221.069 361.04 217.315 363.212L149.296 402.555C145.542 404.726 139.447 404.726 135.692 402.555L67.6733 363.212C63.9189 361.04 63.9189 357.515 67.6733 355.343L135.692 316.001Z" fill="white" />
      </mask>
      <g mask="url(#mask11_9_644)">
        <path d="M152.015 314.428C146.753 311.382 138.231 311.382 132.969 314.428L138.412 317.575C140.666 316.269 144.318 316.269 146.572 317.575L152.015 314.428ZM214.591 356.918C216.845 358.224 216.845 360.333 214.591 361.639L220.034 364.786C225.297 361.741 225.297 356.815 220.034 353.77L214.591 356.918ZM146.572 400.982C144.318 402.288 140.666 402.288 138.412 400.982L132.969 404.129C138.231 407.174 146.753 407.174 152.015 404.129L146.572 400.982ZM70.3928 361.639C68.1386 360.333 68.1386 358.224 70.3928 356.918L64.9497 353.77C59.6873 356.815 59.6873 361.741 64.9497 364.786L70.3928 361.639ZM70.3928 356.918L138.412 317.575L132.969 314.428L64.9497 353.77L70.3928 356.918ZM138.412 400.982L70.3928 361.639L64.9497 364.786L132.969 404.129L138.412 400.982ZM214.591 361.639L146.572 400.982L152.015 404.129L220.034 364.786L214.591 361.639ZM146.572 317.575L214.591 356.918L220.034 353.77L152.015 314.428L146.572 317.575Z" fill="#1B1B1B" />
      </g>
      <path d="M135.69 327.536C139.445 325.364 145.54 325.364 149.294 327.536L197.371 355.343C201.125 357.515 201.125 361.04 197.371 363.212L149.294 391.019C145.54 393.191 139.445 393.191 135.69 391.019L87.6138 363.212C83.8594 361.04 83.8594 357.515 87.6138 355.343L135.69 327.536Z" fill="#1B1B1B" />
      <mask id="mask12_9_644" style="mask-type:luminance" maskUnits="userSpaceOnUse" x="84" y="325" width="117" height="68">
        <path d="M135.686 327.536C139.44 325.364 145.535 325.364 149.29 327.536L197.366 355.343C201.121 357.515 201.121 361.04 197.366 363.212L149.29 391.019C145.535 393.191 139.44 393.191 135.686 391.019L87.6094 363.212C83.855 361.04 83.855 357.515 87.6094 355.343L135.686 327.536Z" fill="white" />
      </mask>
      <g mask="url(#mask12_9_644)">
        <path d="M152.018 325.962C146.756 322.917 138.234 322.917 132.971 325.962L138.414 329.109C140.668 327.803 144.321 327.803 146.575 329.109L152.018 325.962ZM194.651 356.917C196.906 358.223 196.906 360.332 194.651 361.638L200.095 364.785C205.357 361.74 205.357 356.815 200.095 353.769L194.651 356.917ZM146.575 389.445C144.321 390.752 140.668 390.752 138.414 389.445L132.971 392.593C138.234 395.638 146.756 395.638 152.018 392.593L146.575 389.445ZM90.3376 361.638C88.0834 360.332 88.0834 358.223 90.3376 356.917L84.8945 353.769C79.6321 356.815 79.6321 361.74 84.8945 364.785L90.3376 361.638ZM90.3376 356.917L138.414 329.109L132.971 325.962L84.8945 353.769L90.3376 356.917ZM138.414 389.445L90.3376 361.638L84.8945 364.785L132.971 392.593L138.414 389.445ZM194.651 361.638L146.575 389.445L152.018 392.593L200.095 364.785L194.651 361.638ZM146.575 329.109L194.651 356.917L200.095 353.769L152.018 325.962L146.575 329.109Z" fill="#1B1B1B" />
      </g>
      <path d="M137.711 369.594L160.45 369.476L160.662 356.327L167.581 356.288L167.306 373.441L137.648 373.599L137.711 369.594ZM124.979 362.229L125.191 349.08L147.93 348.962L147.993 344.957L118.334 345.115L118.06 362.268L124.979 362.229Z" fill="#9DF25B" />
      <path d="M99.5069 167.962H87.0106V165.051H94.4565L94.4722 154.349H99.5069V167.962ZM103.772 151.115C100.135 149.707 95.7603 149.07 91.4012 149.314C87.042 149.557 82.9656 150.675 79.8631 152.469C74.7028 155.451 73.1476 159.739 75.2055 163.508C72.8649 165.192 71.6789 167.317 71.8831 169.473C72.0873 171.629 73.6582 173.667 76.2972 175.193C82.2037 178.608 91.8175 178.608 97.7239 175.193L120.934 161.769C125.858 158.921 125.858 154.294 120.934 151.446C116.221 148.723 108.736 148.629 103.772 151.123V151.115Z" fill="#9DF25B" />
    </g>
  </g>
  <defs>
    <clipPath id="clip0_9_644">
      <rect width="576" height="442" fill="white" />
    </clipPath>
  </defs>
</svg>
