<svg width="144" height="29" viewBox="0 0 144 29" fill="none" xmlns="http://www.w3.org/2000/svg">
  <g clip-path="url(#clip0_9_811)">
    <path d="M136.482 22.689C134.786 22.689 133.322 22.3396 132.089 21.6408C130.864 20.9347 129.921 19.9375 129.26 18.6491C128.6 17.3534 128.269 15.8284 128.269 14.0742C128.269 12.349 128.6 10.835 129.26 9.532C129.928 8.22176 130.86 7.20269 132.056 6.47477C133.253 5.73958 134.658 5.37199 136.273 5.37199C137.315 5.37199 138.298 5.53941 139.223 5.87425C140.155 6.20181 140.977 6.71135 141.689 7.40286C142.408 8.09438 142.973 8.97515 143.384 10.0452C143.795 11.1079 144.001 12.3745 144.001 13.8449V15.0569H130.141V12.3927H140.181C140.173 11.6357 140.008 10.9624 139.685 10.3727C139.362 9.77586 138.911 9.30635 138.331 8.96423C137.759 8.62212 137.091 8.45106 136.328 8.45106C135.513 8.45106 134.797 8.64759 134.181 9.04066C133.565 9.42646 133.084 9.936 132.739 10.5693C132.401 11.1953 132.229 11.8832 132.221 12.6329V14.9586C132.221 15.934 132.401 16.7711 132.761 17.4699C133.12 18.1614 133.623 18.6928 134.269 19.064C134.915 19.428 135.671 19.6099 136.537 19.6099C137.117 19.6099 137.641 19.5299 138.111 19.3697C138.581 19.2023 138.988 18.9585 139.333 18.6382C139.678 18.3179 139.938 17.9212 140.115 17.448L143.835 17.863C143.601 18.8384 143.153 19.69 142.492 20.4179C141.839 21.1386 141.003 21.699 139.982 22.0994C138.962 22.4925 137.795 22.689 136.482 22.689Z" fill="#4379CB" />
    <path d="M109.622 28.6506V5.59036H113.541V8.36371H113.772C113.977 7.95608 114.267 7.52297 114.642 7.06438C115.016 6.59852 115.522 6.20181 116.161 5.87425C116.799 5.53941 117.614 5.37199 118.605 5.37199C119.911 5.37199 121.089 5.70319 122.138 6.36559C123.195 7.02071 124.032 7.99247 124.648 9.28087C125.272 10.562 125.584 12.1343 125.584 13.9977C125.584 15.8394 125.279 17.4044 124.67 18.6928C124.061 19.9812 123.232 20.9639 122.182 21.6408C121.133 22.3178 119.944 22.6563 118.616 22.6563C117.647 22.6563 116.843 22.4961 116.205 22.1758C115.566 21.8555 115.052 21.4698 114.664 21.0185C114.282 20.5599 113.985 20.1268 113.772 19.7191H113.607V28.6506H109.622ZM113.53 13.9759C113.53 15.0605 113.684 16.0104 113.992 16.8257C114.308 17.6409 114.759 18.2779 115.346 18.7364C115.941 19.1878 116.66 19.4134 117.504 19.4134C118.384 19.4134 119.122 19.1805 119.716 18.7146C120.311 18.2415 120.759 17.5973 121.059 16.782C121.368 15.9595 121.522 15.0241 121.522 13.9759C121.522 12.935 121.371 12.0105 121.07 11.2026C120.77 10.3946 120.322 9.7613 119.727 9.30271C119.133 8.84413 118.392 8.61483 117.504 8.61483C116.652 8.61483 115.929 8.83685 115.335 9.28087C114.741 9.7249 114.289 10.3473 113.981 11.148C113.68 11.9487 113.53 12.8913 113.53 13.9759Z" fill="#4379CB" />
    <path d="M94.2379 28.6506C93.6948 28.6506 93.1921 28.6069 92.7297 28.5196C92.2747 28.4395 91.9114 28.3449 91.6399 28.2357L92.5646 25.1566C93.1444 25.324 93.6618 25.4041 94.1168 25.3968C94.5718 25.3896 94.9718 25.2476 95.3167 24.971C95.669 24.7017 95.9662 24.2504 96.2084 23.6171L96.5497 22.7108L90.4179 5.59036H94.6452L98.5422 18.256H98.7184L102.626 5.59036H106.865L100.094 24.3923C99.7789 25.2804 99.3605 26.041 98.8395 26.6743C98.3184 27.3149 97.6799 27.8026 96.924 28.1374C96.1754 28.4795 95.28 28.6506 94.2379 28.6506Z" fill="#4379CB" />
    <path d="M72.4197 3.39571V0H90.4076V3.39571H83.4392V22.3614H79.3881V3.39571H72.4197Z" fill="#4379CB" />
    <path d="M62.9915 22.689C61.3402 22.689 59.9091 22.3287 58.6982 21.6081C57.4872 20.8874 56.5479 19.8793 55.88 18.5836C55.2195 17.2879 54.8892 15.7738 54.8892 14.0414C54.8892 12.309 55.2195 10.7913 55.88 9.48833C56.5479 8.18537 57.4872 7.17357 58.6982 6.45294C59.9091 5.73231 61.3402 5.37199 62.9915 5.37199C64.6428 5.37199 66.0739 5.73231 67.2848 6.45294C68.4958 7.17357 69.4315 8.18537 70.092 9.48833C70.7599 10.7913 71.0938 12.309 71.0938 14.0414C71.0938 15.7738 70.7599 17.2879 70.092 18.5836C69.4315 19.8793 68.4958 20.8874 67.2848 21.6081C66.0739 22.3287 64.6428 22.689 62.9915 22.689ZM63.0135 19.5226C63.9089 19.5226 64.6575 19.2787 65.2593 18.791C65.8611 18.2961 66.3087 17.6337 66.6023 16.8038C66.9032 15.974 67.0537 15.0496 67.0537 14.0305C67.0537 13.0041 66.9032 12.0761 66.6023 11.2462C66.3087 10.4091 65.8611 9.7431 65.2593 9.24812C64.6575 8.75314 63.9089 8.50565 63.0135 8.50565C62.0962 8.50565 61.3329 8.75314 60.7238 9.24812C60.122 9.7431 59.6706 10.4091 59.3697 11.2462C59.0761 12.0761 58.9294 13.0041 58.9294 14.0305C58.9294 15.0496 59.0761 15.974 59.3697 16.8038C59.6706 17.6337 60.122 18.2961 60.7238 18.791C61.3329 19.2787 62.0962 19.5226 63.0135 19.5226Z" fill="#4379CB" />
    <path d="M43.5952 29C42.1641 29 40.9348 28.8071 39.9073 28.4213C38.8799 28.0428 38.0542 27.5333 37.4304 26.8927C36.8066 26.2521 36.3736 25.5424 36.1314 24.7636L39.7202 23.901C39.8817 24.2285 40.1165 24.5525 40.4247 24.8727C40.733 25.2003 41.1476 25.4696 41.6687 25.6807C42.1971 25.8991 42.8613 26.0083 43.6613 26.0083C44.7915 26.0083 45.7272 25.7353 46.4684 25.1894C47.2097 24.6507 47.5803 23.7627 47.5803 22.5252V19.3479H47.3821C47.1766 19.7555 46.8757 20.1741 46.4794 20.6035C46.0905 21.033 45.5731 21.3933 44.9272 21.6845C44.2887 21.9757 43.4851 22.1212 42.5164 22.1212C41.2174 22.1212 40.0394 21.8192 38.9826 21.215C37.9332 20.6035 37.0965 19.6937 36.4727 18.4853C35.8562 17.2697 35.548 15.7484 35.548 13.9213C35.548 12.0797 35.8562 10.5256 36.4727 9.25904C37.0965 7.98519 37.9368 7.02071 38.9936 6.36559C40.0505 5.70319 41.2284 5.37199 42.5274 5.37199C43.5181 5.37199 44.3328 5.53941 44.9713 5.87425C45.6171 6.20181 46.1308 6.59852 46.5125 7.06438C46.8941 7.52297 47.184 7.95608 47.3821 8.36371H47.6023V5.59036H51.5323V22.6344C51.5323 24.0684 51.1874 25.2549 50.4975 26.1939C49.8077 27.1329 48.8646 27.8353 47.6684 28.3012C46.4721 28.7671 45.1144 29 43.5952 29ZM43.6282 19.0203C44.4722 19.0203 45.1914 18.8165 45.7859 18.4089C46.3804 18.0013 46.8317 17.4153 47.1399 16.651C47.4482 15.8867 47.6023 14.9695 47.6023 13.8995C47.6023 12.844 47.4482 11.9196 47.1399 11.1261C46.839 10.3327 46.3914 9.71762 45.7969 9.28087C45.2098 8.83685 44.4869 8.61483 43.6282 8.61483C42.7402 8.61483 41.999 8.84413 41.4045 9.30271C40.81 9.7613 40.3624 10.3909 40.0615 11.1916C39.7606 11.9851 39.6101 12.8877 39.6101 13.8995C39.6101 14.9258 39.7606 15.8248 40.0615 16.5964C40.3697 17.3607 40.8211 17.9576 41.4155 18.387C42.0173 18.8092 42.7549 19.0203 43.6282 19.0203Z" fill="#4379CB" />
    <path d="M24.7575 22.689C23.1063 22.689 21.6752 22.3287 20.4642 21.6081C19.2533 20.8874 18.3139 19.8793 17.646 18.5836C16.9855 17.2879 16.6553 15.7738 16.6553 14.0414C16.6553 12.309 16.9855 10.7913 17.646 9.48833C18.3139 8.18537 19.2533 7.17357 20.4642 6.45294C21.6752 5.73231 23.1063 5.37199 24.7575 5.37199C26.4088 5.37199 27.8399 5.73231 29.0509 6.45294C30.2618 7.17357 31.1975 8.18537 31.858 9.48833C32.5259 10.7913 32.8598 12.309 32.8598 14.0414C32.8598 15.7738 32.5259 17.2879 31.858 18.5836C31.1975 19.8793 30.2618 20.8874 29.0509 21.6081C27.8399 22.3287 26.4088 22.689 24.7575 22.689ZM24.7796 19.5226C25.6749 19.5226 26.4235 19.2787 27.0253 18.791C27.6271 18.2961 28.0748 17.6337 28.3683 16.8038C28.6692 15.974 28.8197 15.0496 28.8197 14.0305C28.8197 13.0041 28.6692 12.0761 28.3683 11.2462C28.0748 10.4091 27.6271 9.7431 27.0253 9.24812C26.4235 8.75314 25.6749 8.50565 24.7796 8.50565C23.8622 8.50565 23.0989 8.75314 22.4898 9.24812C21.888 9.7431 21.4366 10.4091 21.1357 11.2462C20.8422 12.0761 20.6954 13.0041 20.6954 14.0305C20.6954 15.0496 20.8422 15.974 21.1357 16.8038C21.4366 17.6337 21.888 18.2961 22.4898 18.791C23.0989 19.2787 23.8622 19.5226 24.7796 19.5226Z" fill="#4379CB" />
    <path d="M0 22.3614V0H4.08416V18.9657H14.0139V22.3614H0Z" fill="#4379CB" />
  </g>
  <defs>
    <clipPath id="clip0_9_811">
      <rect width="144" height="29" fill="white" />
    </clipPath>
  </defs>
</svg>
